<mxfile host="app.diagrams.net" agent="Mozilla/5.0 (Windows NT 10.0; Win64; x64) AppleWebKit/537.36 (KHTML, like Gecko) Chrome/131.0.0.0 Safari/537.36" version="25.0.3">
  <diagram name="Pagina-1" id="kLdD4Hqfa2oXCzpHfRV7">
    <mxGraphModel dx="2415" dy="984" grid="1" gridSize="10" guides="1" tooltips="1" connect="1" arrows="1" fold="1" page="1" pageScale="1" pageWidth="827" pageHeight="1169" math="0" shadow="0">
      <root>
        <mxCell id="0" />
        <mxCell id="1" parent="0" />
        <mxCell id="N_J6juqgfKEDQl2CNMBO-1" value="&lt;div&gt;&lt;font style=&quot;font-size: 9px;&quot;&gt;&amp;lt;&amp;lt;Boundary&amp;gt;&amp;gt;&lt;/font&gt;&lt;/div&gt;Classname" style="swimlane;fontStyle=1;align=center;verticalAlign=top;childLayout=stackLayout;horizontal=1;startSize=40;horizontalStack=0;resizeParent=1;resizeParentMax=0;resizeLast=0;collapsible=1;marginBottom=0;whiteSpace=wrap;html=1;" vertex="1" parent="1">
          <mxGeometry x="300" y="80" width="160" height="100" as="geometry" />
        </mxCell>
        <mxCell id="N_J6juqgfKEDQl2CNMBO-2" value="+ field: type" style="text;strokeColor=none;fillColor=none;align=left;verticalAlign=top;spacingLeft=4;spacingRight=4;overflow=hidden;rotatable=0;points=[[0,0.5],[1,0.5]];portConstraint=eastwest;whiteSpace=wrap;html=1;" vertex="1" parent="N_J6juqgfKEDQl2CNMBO-1">
          <mxGeometry y="40" width="160" height="26" as="geometry" />
        </mxCell>
        <mxCell id="N_J6juqgfKEDQl2CNMBO-3" value="" style="line;strokeWidth=1;fillColor=none;align=left;verticalAlign=middle;spacingTop=-1;spacingLeft=3;spacingRight=3;rotatable=0;labelPosition=right;points=[];portConstraint=eastwest;strokeColor=inherit;" vertex="1" parent="N_J6juqgfKEDQl2CNMBO-1">
          <mxGeometry y="66" width="160" height="8" as="geometry" />
        </mxCell>
        <mxCell id="N_J6juqgfKEDQl2CNMBO-4" value="+ method(type): type" style="text;strokeColor=none;fillColor=none;align=left;verticalAlign=top;spacingLeft=4;spacingRight=4;overflow=hidden;rotatable=0;points=[[0,0.5],[1,0.5]];portConstraint=eastwest;whiteSpace=wrap;html=1;" vertex="1" parent="N_J6juqgfKEDQl2CNMBO-1">
          <mxGeometry y="74" width="160" height="26" as="geometry" />
        </mxCell>
        <mxCell id="N_J6juqgfKEDQl2CNMBO-5" value="&lt;div&gt;&lt;font style=&quot;font-size: 9px;&quot;&gt;&amp;lt;&amp;lt;Boundary&amp;gt;&amp;gt;&lt;/font&gt;&lt;/div&gt;&lt;div&gt;&lt;strong style=&quot;background-color: initial;&quot;&gt;JoinLobby&lt;/strong&gt;&lt;/div&gt;" style="swimlane;fontStyle=1;align=center;verticalAlign=top;childLayout=stackLayout;horizontal=1;startSize=40;horizontalStack=0;resizeParent=1;resizeParentMax=0;resizeLast=0;collapsible=1;marginBottom=0;whiteSpace=wrap;html=1;" vertex="1" parent="1">
          <mxGeometry x="-20" y="70" width="220" height="160" as="geometry" />
        </mxCell>
        <mxCell id="N_J6juqgfKEDQl2CNMBO-7" value="" style="line;strokeWidth=1;fillColor=none;align=left;verticalAlign=middle;spacingTop=-1;spacingLeft=3;spacingRight=3;rotatable=0;labelPosition=right;points=[];portConstraint=eastwest;strokeColor=inherit;" vertex="1" parent="N_J6juqgfKEDQl2CNMBO-5">
          <mxGeometry y="40" width="220" height="8" as="geometry" />
        </mxCell>
        <mxCell id="N_J6juqgfKEDQl2CNMBO-8" value="&lt;p data-pm-slice=&quot;1 1 [&amp;quot;list&amp;quot;,{&amp;quot;spread&amp;quot;:false,&amp;quot;start&amp;quot;:35,&amp;quot;end&amp;quot;:392},&amp;quot;regular_list_item&amp;quot;,{&amp;quot;start&amp;quot;:35,&amp;quot;end&amp;quot;:392},&amp;quot;list&amp;quot;,{&amp;quot;spread&amp;quot;:false,&amp;quot;start&amp;quot;:62,&amp;quot;end&amp;quot;:392},&amp;quot;regular_list_item&amp;quot;,{&amp;quot;start&amp;quot;:62,&amp;quot;end&amp;quot;:143}]&quot;&gt;&lt;span style=&quot;background-color: initial;&quot;&gt;+ showLobbyList()&lt;/span&gt;&lt;/p&gt;&lt;p data-pm-slice=&quot;1 1 [&amp;quot;list&amp;quot;,{&amp;quot;spread&amp;quot;:false,&amp;quot;start&amp;quot;:35,&amp;quot;end&amp;quot;:392},&amp;quot;regular_list_item&amp;quot;,{&amp;quot;start&amp;quot;:35,&amp;quot;end&amp;quot;:392},&amp;quot;list&amp;quot;,{&amp;quot;spread&amp;quot;:false,&amp;quot;start&amp;quot;:62,&amp;quot;end&amp;quot;:392},&amp;quot;regular_list_item&amp;quot;,{&amp;quot;start&amp;quot;:62,&amp;quot;end&amp;quot;:143}]&quot;&gt;&lt;span style=&quot;background-color: initial;&quot;&gt;+ displaySelectedLobby(lobby: Lobby)&lt;/span&gt;&lt;/p&gt;&lt;p data-pm-slice=&quot;1 1 [&amp;quot;list&amp;quot;,{&amp;quot;spread&amp;quot;:false,&amp;quot;start&amp;quot;:35,&amp;quot;end&amp;quot;:392},&amp;quot;regular_list_item&amp;quot;,{&amp;quot;start&amp;quot;:35,&amp;quot;end&amp;quot;:392},&amp;quot;list&amp;quot;,{&amp;quot;spread&amp;quot;:false,&amp;quot;start&amp;quot;:62,&amp;quot;end&amp;quot;:392},&amp;quot;regular_list_item&amp;quot;,{&amp;quot;start&amp;quot;:146,&amp;quot;end&amp;quot;:229}]&quot;&gt;&lt;font face=&quot;Helvetica&quot;&gt;&lt;code&gt;&lt;/code&gt;&lt;/font&gt;&lt;/p&gt;&lt;p data-pm-slice=&quot;1 1 [&amp;quot;list&amp;quot;,{&amp;quot;spread&amp;quot;:false,&amp;quot;start&amp;quot;:35,&amp;quot;end&amp;quot;:392},&amp;quot;regular_list_item&amp;quot;,{&amp;quot;start&amp;quot;:35,&amp;quot;end&amp;quot;:392},&amp;quot;list&amp;quot;,{&amp;quot;spread&amp;quot;:false,&amp;quot;start&amp;quot;:62,&amp;quot;end&amp;quot;:392},&amp;quot;regular_list_item&amp;quot;,{&amp;quot;start&amp;quot;:232,&amp;quot;end&amp;quot;:301}]&quot;&gt;&lt;code&gt;&lt;font face=&quot;Helvetica&quot;&gt;+ displayFilters()&lt;/font&gt;&lt;/code&gt;&lt;/p&gt;&lt;p data-pm-slice=&quot;1 1 [&amp;quot;list&amp;quot;,{&amp;quot;spread&amp;quot;:false,&amp;quot;start&amp;quot;:35,&amp;quot;end&amp;quot;:392},&amp;quot;regular_list_item&amp;quot;,{&amp;quot;start&amp;quot;:35,&amp;quot;end&amp;quot;:392},&amp;quot;list&amp;quot;,{&amp;quot;spread&amp;quot;:false,&amp;quot;start&amp;quot;:62,&amp;quot;end&amp;quot;:392},&amp;quot;regular_list_item&amp;quot;,{&amp;quot;start&amp;quot;:232,&amp;quot;end&amp;quot;:301}]&quot;&gt;&lt;span style=&quot;background-color: initial;&quot;&gt;+ confirmationPrompt(lobby: Lobby)&lt;/span&gt;&lt;/p&gt;" style="text;strokeColor=none;fillColor=none;align=left;verticalAlign=top;spacingLeft=4;spacingRight=4;overflow=hidden;rotatable=0;points=[[0,0.5],[1,0.5]];portConstraint=eastwest;whiteSpace=wrap;html=1;" vertex="1" parent="N_J6juqgfKEDQl2CNMBO-5">
          <mxGeometry y="48" width="220" height="112" as="geometry" />
        </mxCell>
        <mxCell id="N_J6juqgfKEDQl2CNMBO-9" value="&lt;div&gt;&lt;font style=&quot;font-size: 9px;&quot;&gt;&amp;lt;&amp;lt;Controller&amp;gt;&amp;gt;&lt;/font&gt;&lt;/div&gt;JoinController" style="swimlane;fontStyle=1;align=center;verticalAlign=top;childLayout=stackLayout;horizontal=1;startSize=40;horizontalStack=0;resizeParent=1;resizeParentMax=0;resizeLast=0;collapsible=1;marginBottom=0;whiteSpace=wrap;html=1;" vertex="1" parent="1">
          <mxGeometry x="-40" y="300" width="260" height="190" as="geometry" />
        </mxCell>
        <mxCell id="N_J6juqgfKEDQl2CNMBO-11" value="" style="line;strokeWidth=1;fillColor=none;align=left;verticalAlign=middle;spacingTop=-1;spacingLeft=3;spacingRight=3;rotatable=0;labelPosition=right;points=[];portConstraint=eastwest;strokeColor=inherit;" vertex="1" parent="N_J6juqgfKEDQl2CNMBO-9">
          <mxGeometry y="40" width="260" height="8" as="geometry" />
        </mxCell>
        <mxCell id="N_J6juqgfKEDQl2CNMBO-12" value="&lt;p data-pm-slice=&quot;1 1 [&amp;quot;list&amp;quot;,{&amp;quot;spread&amp;quot;:false,&amp;quot;start&amp;quot;:410,&amp;quot;end&amp;quot;:916},&amp;quot;regular_list_item&amp;quot;,{&amp;quot;start&amp;quot;:410,&amp;quot;end&amp;quot;:916},&amp;quot;list&amp;quot;,{&amp;quot;spread&amp;quot;:false,&amp;quot;start&amp;quot;:438,&amp;quot;end&amp;quot;:916},&amp;quot;regular_list_item&amp;quot;,{&amp;quot;start&amp;quot;:438,&amp;quot;end&amp;quot;:546}]&quot;&gt;&lt;code&gt;&lt;font face=&quot;Helvetica&quot;&gt;+applyFilters(filters: FilterSettings): list&amp;lt;Lobby&amp;gt;&lt;/font&gt;&lt;/code&gt;&lt;/p&gt;&lt;p data-pm-slice=&quot;1 1 [&amp;quot;list&amp;quot;,{&amp;quot;spread&amp;quot;:false,&amp;quot;start&amp;quot;:410,&amp;quot;end&amp;quot;:916},&amp;quot;regular_list_item&amp;quot;,{&amp;quot;start&amp;quot;:410,&amp;quot;end&amp;quot;:916},&amp;quot;list&amp;quot;,{&amp;quot;spread&amp;quot;:false,&amp;quot;start&amp;quot;:438,&amp;quot;end&amp;quot;:916},&amp;quot;regular_list_item&amp;quot;,{&amp;quot;start&amp;quot;:438,&amp;quot;end&amp;quot;:546}]&quot;&gt;&lt;font face=&quot;Helvetica&quot;&gt;&lt;code&gt;&lt;/code&gt;&lt;/font&gt;&lt;/p&gt;&lt;p data-pm-slice=&quot;1 1 [&amp;quot;list&amp;quot;,{&amp;quot;spread&amp;quot;:false,&amp;quot;start&amp;quot;:410,&amp;quot;end&amp;quot;:916},&amp;quot;regular_list_item&amp;quot;,{&amp;quot;start&amp;quot;:410,&amp;quot;end&amp;quot;:916},&amp;quot;list&amp;quot;,{&amp;quot;spread&amp;quot;:false,&amp;quot;start&amp;quot;:438,&amp;quot;end&amp;quot;:916},&amp;quot;regular_list_item&amp;quot;,{&amp;quot;start&amp;quot;:549,&amp;quot;end&amp;quot;:634}]&quot;&gt;&lt;code&gt;&lt;font face=&quot;Helvetica&quot;&gt;+joinLobby(lobby: Lobby)&lt;/font&gt;&lt;/code&gt;&lt;/p&gt;&lt;p data-pm-slice=&quot;1 1 [&amp;quot;list&amp;quot;,{&amp;quot;spread&amp;quot;:false,&amp;quot;start&amp;quot;:410,&amp;quot;end&amp;quot;:916},&amp;quot;regular_list_item&amp;quot;,{&amp;quot;start&amp;quot;:410,&amp;quot;end&amp;quot;:916},&amp;quot;list&amp;quot;,{&amp;quot;spread&amp;quot;:false,&amp;quot;start&amp;quot;:438,&amp;quot;end&amp;quot;:916},&amp;quot;regular_list_item&amp;quot;,{&amp;quot;start&amp;quot;:549,&amp;quot;end&amp;quot;:634}]&quot;&gt;&lt;font face=&quot;Helvetica&quot;&gt;&lt;code&gt;&lt;/code&gt;&lt;/font&gt;&lt;/p&gt;&lt;p data-pm-slice=&quot;1 1 [&amp;quot;list&amp;quot;,{&amp;quot;spread&amp;quot;:false,&amp;quot;start&amp;quot;:410,&amp;quot;end&amp;quot;:916},&amp;quot;regular_list_item&amp;quot;,{&amp;quot;start&amp;quot;:410,&amp;quot;end&amp;quot;:916},&amp;quot;list&amp;quot;,{&amp;quot;spread&amp;quot;:false,&amp;quot;start&amp;quot;:438,&amp;quot;end&amp;quot;:916},&amp;quot;regular_list_item&amp;quot;,{&amp;quot;start&amp;quot;:637,&amp;quot;end&amp;quot;:740}]&quot;&gt;&lt;code&gt;&lt;font face=&quot;Helvetica&quot;&gt;+notifyParticipants(lobby: Lobby)&lt;/font&gt;&lt;/code&gt;&lt;/p&gt;&lt;p data-pm-slice=&quot;1 1 [&amp;quot;list&amp;quot;,{&amp;quot;spread&amp;quot;:false,&amp;quot;start&amp;quot;:410,&amp;quot;end&amp;quot;:916},&amp;quot;regular_list_item&amp;quot;,{&amp;quot;start&amp;quot;:410,&amp;quot;end&amp;quot;:916},&amp;quot;list&amp;quot;,{&amp;quot;spread&amp;quot;:false,&amp;quot;start&amp;quot;:438,&amp;quot;end&amp;quot;:916},&amp;quot;regular_list_item&amp;quot;,{&amp;quot;start&amp;quot;:637,&amp;quot;end&amp;quot;:740}]&quot;&gt;&lt;font face=&quot;Helvetica&quot;&gt;&lt;code&gt;&lt;/code&gt;&lt;/font&gt;&lt;/p&gt;&lt;p data-pm-slice=&quot;1 1 [&amp;quot;list&amp;quot;,{&amp;quot;spread&amp;quot;:false,&amp;quot;start&amp;quot;:410,&amp;quot;end&amp;quot;:916},&amp;quot;regular_list_item&amp;quot;,{&amp;quot;start&amp;quot;:410,&amp;quot;end&amp;quot;:916},&amp;quot;list&amp;quot;,{&amp;quot;spread&amp;quot;:false,&amp;quot;start&amp;quot;:438,&amp;quot;end&amp;quot;:916},&amp;quot;regular_list_item&amp;quot;,{&amp;quot;start&amp;quot;:743,&amp;quot;end&amp;quot;:834}]&quot;&gt;&lt;code&gt;&lt;font face=&quot;Helvetica&quot;&gt;+saveChanges(lobby: Lobby)&lt;/font&gt;&lt;/code&gt;&lt;/p&gt;&lt;p data-pm-slice=&quot;1 1 [&amp;quot;list&amp;quot;,{&amp;quot;spread&amp;quot;:false,&amp;quot;start&amp;quot;:410,&amp;quot;end&amp;quot;:916},&amp;quot;regular_list_item&amp;quot;,{&amp;quot;start&amp;quot;:410,&amp;quot;end&amp;quot;:916},&amp;quot;list&amp;quot;,{&amp;quot;spread&amp;quot;:false,&amp;quot;start&amp;quot;:438,&amp;quot;end&amp;quot;:916},&amp;quot;regular_list_item&amp;quot;,{&amp;quot;start&amp;quot;:743,&amp;quot;end&amp;quot;:834}]&quot;&gt;&lt;font face=&quot;Helvetica&quot;&gt;&lt;code&gt;&lt;/code&gt;&lt;/font&gt;&lt;/p&gt;&lt;p data-pm-slice=&quot;1 1 [&amp;quot;list&amp;quot;,{&amp;quot;spread&amp;quot;:false,&amp;quot;start&amp;quot;:410,&amp;quot;end&amp;quot;:916},&amp;quot;regular_list_item&amp;quot;,{&amp;quot;start&amp;quot;:410,&amp;quot;end&amp;quot;:916},&amp;quot;list&amp;quot;,{&amp;quot;spread&amp;quot;:false,&amp;quot;start&amp;quot;:438,&amp;quot;end&amp;quot;:916},&amp;quot;regular_list_item&amp;quot;,{&amp;quot;start&amp;quot;:837,&amp;quot;end&amp;quot;:916}]&quot;&gt;&lt;code&gt;&lt;font face=&quot;Helvetica&quot;&gt;+removeFromLobby(lobby: Lobby)&lt;/font&gt;&lt;/code&gt;&lt;/p&gt;" style="text;strokeColor=none;fillColor=none;align=left;verticalAlign=top;spacingLeft=4;spacingRight=4;overflow=hidden;rotatable=0;points=[[0,0.5],[1,0.5]];portConstraint=eastwest;whiteSpace=wrap;html=1;" vertex="1" parent="N_J6juqgfKEDQl2CNMBO-9">
          <mxGeometry y="48" width="260" height="142" as="geometry" />
        </mxCell>
      </root>
    </mxGraphModel>
  </diagram>
</mxfile>
